<svg width="24" height="24" viewBox="0 0 24 24" fill="none" xmlns="http://www.w3.org/2000/svg">
<path d="M14.0719 6.50897C14.8433 6.21965 15.7164 5.95686 16.608 6.04706H16.6119C17.3577 6.07817 19.4325 6.34693 20.7858 8.27753C20.3982 8.52031 18.2706 9.95416 18.2955 12.7287C18.312 14.5115 19.0947 15.7016 19.8776 16.4465C20.2684 16.8183 20.6593 17.0792 20.9547 17.2482C21.1024 17.3327 21.2267 17.3947 21.3151 17.4357C21.3512 17.4525 21.3829 17.4655 21.4069 17.4758C21.3134 17.7768 20.8421 19.2266 19.8209 20.7189C19.335 21.4292 18.8437 22.1313 18.278 22.6603C17.7133 23.1883 17.0785 23.5395 16.3053 23.5539C15.5404 23.5679 15.0361 23.3425 14.4928 23.1076C13.9476 22.8719 13.3664 22.6291 12.4615 22.6291C11.558 22.6292 10.9641 22.8567 10.4147 23.0891C9.93473 23.292 9.49342 23.4957 8.90491 23.5627L8.64319 23.5822C7.901 23.6104 7.24216 23.2393 6.64221 22.6769C6.04217 22.1145 5.50897 21.3686 5.01917 20.6613C4.0242 19.2228 3.1452 17.1878 2.77112 15.0695C2.39702 12.9509 2.52924 10.7561 3.54553 8.99139C4.55491 7.23939 6.35777 6.13226 8.31213 6.1037C9.05088 6.08961 9.77242 6.33836 10.4303 6.59491C10.7572 6.72239 11.0705 6.8527 11.358 6.95038C11.6457 7.04808 11.9154 7.11542 12.1559 7.11542C12.3974 7.11535 12.6868 7.03369 13.0065 6.91913C13.3249 6.80499 13.6901 6.65216 14.0719 6.50897ZM16.5807 0.419128C16.7057 1.74288 16.1718 3.07216 15.3785 4.03241C14.5844 4.99389 13.2918 5.73613 12.027 5.66034C11.8761 4.36329 12.5178 3.01102 13.2545 2.15936V2.15839C14.0712 1.20274 15.4394 0.4876 16.5807 0.419128Z" fill="black" stroke="black" stroke-width="0.125"/>
</svg>
